<svg xmlns="http://www.w3.org/2000/svg" xmlns:xlink="http://www.w3.org/1999/xlink" width="1584" zoomAndPan="magnify" viewBox="0 0 1188 296.999993" height="396" preserveAspectRatio="xMidYMid meet" version="1.2"><defs/><g id="91cbb39bd2"><g style="fill:#000000;fill-opacity:1;"><g transform="translate(369.37288, 205.249855)"><path style="stroke:none" d="M 50.875 -51 C 51.582031 -47.65625 52.460938 -46.113281 53.515625 -46.375 L 53.90625 -45.328125 L 46.78125 -42.546875 L 46.375 -42.421875 L 39.515625 -39.78125 L 39.515625 -40.96875 C 40.484375 -41.582031 41.140625 -42.570312 41.484375 -43.9375 C 41.835938 -45.300781 42.015625 -46.597656 42.015625 -47.828125 C 41.660156 -50.828125 40.929688 -53.671875 39.828125 -56.359375 C 38.734375 -59.046875 36.734375 -60.566406 33.828125 -60.921875 C 28.984375 -61.617188 25.257812 -61.128906 22.65625 -59.453125 C 20.0625 -57.785156 18.28125 -55.453125 17.3125 -52.453125 C 16.34375 -49.460938 15.769531 -46.335938 15.59375 -43.078125 L 15.59375 -11.359375 C 15.59375 -7.046875 16.007812 -4.269531 16.84375 -3.03125 C 17.6875 -1.800781 18.28125 -1.1875 18.625 -1.1875 L 18.625 0 L 3.296875 0 L 3.296875 -1.1875 C 3.742188 -1.1875 4.382812 -1.800781 5.21875 -3.03125 C 6.050781 -4.269531 6.46875 -7.046875 6.46875 -11.359375 L 6.46875 -52.328125 C 6.46875 -56.734375 6.050781 -59.53125 5.21875 -60.71875 C 4.382812 -61.90625 3.742188 -62.5 3.296875 -62.5 L 3.296875 -63.6875 L 15.59375 -63.6875 L 15.59375 -51.140625 C 16.5625 -54.929688 18.410156 -58.054688 21.140625 -60.515625 C 23.867188 -62.984375 28.1875 -64.21875 34.09375 -64.21875 C 39.113281 -64.21875 42.96875 -62.984375 45.65625 -60.515625 C 48.34375 -58.054688 50.082031 -54.882812 50.875 -51 Z M 50.875 -51 "/></g></g><g style="fill:#000000;fill-opacity:1;"><g transform="translate(416.664983, 205.249855)"><path style="stroke:none" d="M 63.6875 -1.1875 L 63.6875 0 L 51.53125 0 L 51.53125 -38.0625 C 51.53125 -40.4375 51.421875 -43.054688 51.203125 -45.921875 C 50.984375 -48.785156 50.429688 -51.535156 49.546875 -54.171875 C 48.671875 -56.816406 47.328125 -58.972656 45.515625 -60.640625 C 43.710938 -62.316406 41.226562 -63.15625 38.0625 -63.15625 C 33.832031 -63.15625 30.347656 -62.40625 27.609375 -60.90625 C 24.878906 -59.414062 23.007812 -57.789062 22 -56.03125 C 20.988281 -54.269531 20.878906 -52.90625 21.671875 -51.9375 C 22.460938 -51.050781 24.003906 -50.539062 26.296875 -50.40625 C 28.585938 -50.28125 30.832031 -49.773438 33.03125 -48.890625 C 35.9375 -47.742188 38.25 -45.9375 39.96875 -43.46875 C 41.6875 -41.007812 42.894531 -38.191406 43.59375 -35.015625 C 44.300781 -31.847656 44.566406 -28.675781 44.390625 -25.5 C 44.222656 -22.332031 43.609375 -19.46875 42.546875 -16.90625 C 40.609375 -11.800781 37.632812 -7.570312 33.625 -4.21875 C 29.625 -0.875 25.285156 0.707031 20.609375 0.53125 C 16.203125 0.351562 12.632812 -0.832031 9.90625 -3.03125 C 7.175781 -5.238281 5.304688 -8.035156 4.296875 -11.421875 C 3.285156 -14.816406 3.175781 -18.382812 3.96875 -22.125 C 4.757812 -25.875 6.453125 -29.441406 9.046875 -32.828125 C 11.648438 -36.222656 15.21875 -39.039062 19.75 -41.28125 C 24.289062 -43.53125 29.820312 -44.789062 36.34375 -45.0625 C 36.519531 -45.144531 36.828125 -45.1875 37.265625 -45.1875 C 35.941406 -46.332031 34.398438 -47.257812 32.640625 -47.96875 C 30.609375 -48.84375 28.335938 -49.300781 25.828125 -49.34375 C 23.316406 -49.394531 21.09375 -49.3125 19.15625 -49.09375 C 17.21875 -48.875 15.984375 -48.675781 15.453125 -48.5 C 15.191406 -50.34375 15.960938 -52.472656 17.765625 -54.890625 C 19.578125 -57.316406 22.222656 -59.457031 25.703125 -61.3125 C 29.179688 -63.164062 33.300781 -64.09375 38.0625 -64.09375 C 43.78125 -64.09375 48.269531 -62.96875 51.53125 -60.71875 C 54.789062 -58.46875 57.125 -55.382812 58.53125 -51.46875 C 59.945312 -47.550781 60.65625 -43.082031 60.65625 -38.0625 L 60.65625 -11.359375 C 60.65625 -7.046875 61.070312 -4.269531 61.90625 -3.03125 C 62.738281 -1.800781 63.332031 -1.1875 63.6875 -1.1875 Z M 38.1875 -44.140625 C 33.519531 -44.140625 29.222656 -43.320312 25.296875 -41.6875 C 21.378906 -40.0625 18.253906 -37.617188 15.921875 -34.359375 C 13.585938 -31.097656 12.421875 -26.910156 12.421875 -21.796875 C 12.421875 -19.335938 12.796875 -16.894531 13.546875 -14.46875 C 14.296875 -12.039062 15.503906 -9.945312 17.171875 -8.1875 C 18.847656 -6.425781 21.007812 -5.28125 23.65625 -4.75 C 26.46875 -4.226562 29.0625 -4.539062 31.4375 -5.6875 C 33.820312 -6.832031 35.894531 -8.4375 37.65625 -10.5 C 39.414062 -12.570312 40.78125 -14.796875 41.75 -17.171875 C 42.894531 -19.992188 43.535156 -23.054688 43.671875 -26.359375 C 43.804688 -29.660156 43.429688 -32.875 42.546875 -36 C 41.671875 -39.132812 40.21875 -41.847656 38.1875 -44.140625 Z M 38.1875 -44.140625 "/></g></g><g style="fill:#000000;fill-opacity:1;"><g transform="translate(483.643039, 205.249855)"><path style="stroke:none" d="M 3.296875 -62.5 L 3.296875 -63.6875 L 15.453125 -63.6875 L 15.453125 -29.46875 C 15.984375 -33.519531 16.710938 -37.175781 17.640625 -40.4375 C 18.566406 -43.695312 19.601562 -46.601562 20.75 -49.15625 C 21.894531 -51.625 23.328125 -54.003906 25.046875 -56.296875 C 26.765625 -58.585938 28.765625 -60.476562 31.046875 -61.96875 C 33.335938 -63.46875 35.9375 -64.21875 38.84375 -64.21875 C 43.6875 -64.21875 47.34375 -62.960938 49.8125 -60.453125 C 52.28125 -57.941406 53.976562 -54.75 54.90625 -50.875 C 55.832031 -47 56.296875 -43.078125 56.296875 -39.109375 L 56.296875 -11.359375 C 56.296875 -7.046875 56.710938 -4.269531 57.546875 -3.03125 C 58.378906 -1.800781 58.972656 -1.1875 59.328125 -1.1875 L 59.328125 0 L 44 0 L 44 -1.1875 C 44.4375 -1.1875 45.050781 -1.800781 45.84375 -3.03125 C 46.644531 -4.269531 47.046875 -7.046875 47.046875 -11.359375 L 47.046875 -39.109375 C 47.046875 -40.691406 46.957031 -42.582031 46.78125 -44.78125 C 46.601562 -46.988281 46.226562 -49.21875 45.65625 -51.46875 C 45.082031 -53.71875 44.242188 -55.695312 43.140625 -57.40625 C 42.035156 -59.125 40.5625 -60.296875 38.71875 -60.921875 C 36.25 -61.796875 33.890625 -61.570312 31.640625 -60.25 C 29.398438 -58.9375 27.441406 -57.175781 25.765625 -54.96875 C 24.085938 -52.769531 22.765625 -50.65625 21.796875 -48.625 C 19.859375 -44.488281 18.316406 -39.335938 17.171875 -33.171875 C 16.023438 -27.003906 15.453125 -19.734375 15.453125 -11.359375 C 15.453125 -7.046875 15.867188 -4.269531 16.703125 -3.03125 C 17.546875 -1.800781 18.144531 -1.1875 18.5 -1.1875 L 18.5 0 L 3.296875 0 L 3.296875 -1.1875 C 3.742188 -1.1875 4.363281 -1.800781 5.15625 -3.03125 C 5.945312 -4.269531 6.34375 -7.046875 6.34375 -11.359375 L 6.34375 -52.328125 C 6.34375 -56.640625 5.945312 -59.410156 5.15625 -60.640625 C 4.363281 -61.878906 3.742188 -62.5 3.296875 -62.5 Z M 3.296875 -62.5 "/></g></g><g style="fill:#000000;fill-opacity:1;"><g transform="translate(546.261543, 205.249855)"><path style="stroke:none" d="M 56.953125 -0.125 L 56.953125 -35.671875 C 56.335938 -31.359375 55.457031 -27.351562 54.3125 -23.65625 C 53.164062 -19.957031 51.84375 -16.695312 50.34375 -13.875 C 47.519531 -8.757812 44.304688 -5.015625 40.703125 -2.640625 L 39.109375 -1.71875 C 36.816406 -0.394531 34.394531 0.441406 31.84375 0.796875 C 29.289062 1.148438 26.738281 1.101562 24.1875 0.65625 C 18.71875 -0.3125 14.375 -2.25 11.15625 -5.15625 C 7.945312 -8.0625 5.75 -11.5625 4.5625 -15.65625 C 3.375 -19.75 3.039062 -24.0625 3.5625 -28.59375 C 4.09375 -33.132812 5.367188 -37.585938 7.390625 -41.953125 C 9.421875 -46.316406 12.023438 -50.128906 15.203125 -53.390625 C 18.453125 -56.734375 22.28125 -59.4375 26.6875 -61.5 C 31.09375 -63.570312 35.941406 -64.566406 41.234375 -64.484375 C 43.515625 -64.566406 45.953125 -64.363281 48.546875 -63.875 C 51.148438 -63.394531 53.953125 -62.539062 56.953125 -61.3125 L 56.953125 -84.171875 C 56.597656 -86.460938 56.132812 -87.957031 55.5625 -88.65625 C 54.988281 -89.363281 54.523438 -89.71875 54.171875 -89.71875 L 53.78125 -90.90625 L 66.203125 -95.53125 L 66.203125 -11.5 C 66.203125 -7.175781 66.617188 -4.398438 67.453125 -3.171875 C 68.296875 -1.941406 68.890625 -1.328125 69.234375 -1.328125 L 69.234375 -0.125 Z M 56.953125 -48.5 L 56.953125 -60.25 C 51.398438 -62.457031 46.113281 -63.5625 41.09375 -63.5625 C 36.507812 -63.46875 32.5 -62.253906 29.0625 -59.921875 C 25.632812 -57.585938 22.773438 -54.441406 20.484375 -50.484375 C 18.898438 -47.566406 17.644531 -44.082031 16.71875 -40.03125 C 15.789062 -35.976562 15.328125 -31.796875 15.328125 -27.484375 C 15.328125 -23.171875 15.898438 -19.097656 17.046875 -15.265625 C 18.191406 -11.429688 20 -8.28125 22.46875 -5.8125 C 24.757812 -3.613281 27.269531 -2.160156 30 -1.453125 C 32.726562 -0.742188 35.585938 -1.140625 38.578125 -2.640625 C 40.347656 -3.609375 41.914062 -4.796875 43.28125 -6.203125 C 44.644531 -7.617188 45.898438 -9.160156 47.046875 -10.828125 C 49.335938 -14.085938 51.1875 -17.765625 52.59375 -21.859375 C 54 -25.960938 55.007812 -30.039062 55.625 -34.09375 C 55.976562 -35.945312 56.242188 -37.84375 56.421875 -39.78125 C 56.691406 -42.59375 56.828125 -45.5 56.828125 -48.5 Z M 56.953125 -48.5 "/></g></g><g style="fill:#000000;fill-opacity:1;"><g transform="translate(823.231579, 207.592385)"><path style="stroke:none" d="M 4.5 -24.21875 C 3 -29.957031 3.019531 -35.5625 4.5625 -41.03125 C 6.101562 -46.5 8.859375 -51.285156 12.828125 -55.390625 C 16.804688 -59.492188 21.660156 -62.296875 27.390625 -63.796875 C 33.210938 -65.378906 38.859375 -65.398438 44.328125 -63.859375 C 49.804688 -62.316406 54.59375 -59.554688 58.6875 -55.578125 C 62.789062 -51.609375 65.59375 -46.710938 67.09375 -40.890625 C 68.6875 -35.160156 68.6875 -29.554688 67.09375 -24.078125 C 65.507812 -18.609375 62.734375 -13.84375 58.765625 -9.78125 C 54.796875 -5.726562 49.941406 -2.910156 44.203125 -1.328125 C 38.460938 0.171875 32.835938 0.171875 27.328125 -1.328125 C 21.816406 -2.828125 17.03125 -5.582031 12.96875 -9.59375 C 8.90625 -13.601562 6.082031 -18.476562 4.5 -24.21875 Z M 58.09375 -38.515625 C 57.21875 -41.691406 55.851562 -44.929688 54 -48.234375 C 52.144531 -51.546875 49.867188 -54.476562 47.171875 -57.03125 C 44.484375 -59.59375 41.484375 -61.445312 38.171875 -62.59375 C 34.867188 -63.738281 31.363281 -63.828125 27.65625 -62.859375 C 23.945312 -61.890625 20.96875 -60.054688 18.71875 -57.359375 C 16.476562 -54.671875 14.828125 -51.5625 13.765625 -48.03125 C 12.703125 -44.507812 12.171875 -40.847656 12.171875 -37.046875 C 12.171875 -33.253906 12.613281 -29.769531 13.5 -26.59375 C 14.382812 -23.425781 15.75 -20.1875 17.59375 -16.875 C 19.445312 -13.5625 21.71875 -10.625 24.40625 -8.0625 C 27.101562 -5.507812 30.101562 -3.632812 33.40625 -2.4375 C 36.71875 -1.25 40.226562 -1.1875 43.9375 -2.25 C 47.644531 -3.21875 50.644531 -5.046875 52.9375 -7.734375 C 55.226562 -10.429688 56.878906 -13.539062 57.890625 -17.0625 C 58.910156 -20.59375 59.421875 -24.253906 59.421875 -28.046875 C 59.421875 -31.847656 58.976562 -35.335938 58.09375 -38.515625 Z M 58.09375 -38.515625 "/></g></g><g style="fill:#000000;fill-opacity:1;"><g transform="translate(888.194581, 207.592385)"><path style="stroke:none" d="M 20.25 -52.40625 L 36.921875 -12.046875 L 52.28125 -48.828125 C 54.039062 -53.066406 54.984375 -56.421875 55.109375 -58.890625 C 55.242188 -61.359375 54.429688 -62.59375 52.671875 -62.59375 L 52.671875 -63.796875 L 63.796875 -63.796875 L 63.796875 -62.59375 C 62.816406 -62.59375 61.398438 -61.597656 59.546875 -59.609375 C 57.703125 -57.628906 55.5 -53.597656 52.9375 -47.515625 L 37.578125 -10.453125 L 41.953125 0 L 32.03125 0 L 10.59375 -51.875 C 9.4375 -54.519531 8.195312 -56.96875 6.875 -59.21875 C 5.550781 -61.46875 4.363281 -62.59375 3.3125 -62.59375 L 3.3125 -63.796875 L 18.65625 -63.796875 L 18.65625 -62.59375 C 18.039062 -62.59375 17.753906 -61.863281 17.796875 -60.40625 C 17.835938 -58.957031 18.65625 -56.289062 20.25 -52.40625 Z M 20.25 -52.40625 "/></g></g><g style="fill:#000000;fill-opacity:1;"><g transform="translate(945.350227, 207.592385)"><path style="stroke:none" d="M 4.5 -23.421875 C 3 -29.160156 3.019531 -34.765625 4.5625 -40.234375 C 6.101562 -45.703125 8.859375 -50.488281 12.828125 -54.59375 C 16.804688 -58.695312 21.660156 -61.5 27.390625 -63 C 33.484375 -64.675781 39.21875 -64.71875 44.59375 -63.125 C 49.976562 -61.539062 54.585938 -58.914062 58.421875 -55.25 C 62.265625 -51.59375 64.890625 -47.425781 66.296875 -42.75 C 63.128906 -42.75 59.710938 -42.613281 56.046875 -42.34375 C 52.390625 -42.082031 49.0625 -41.597656 46.0625 -40.890625 C 49.40625 -40.984375 52.332031 -40.234375 54.84375 -38.640625 C 57.363281 -37.054688 59.375 -34.941406 60.875 -32.296875 C 62.375 -29.648438 63.210938 -26.78125 63.390625 -23.6875 C 63.742188 -18.925781 62.773438 -14.800781 60.484375 -11.3125 C 58.191406 -7.832031 55.082031 -5.097656 51.15625 -3.109375 C 47.226562 -1.117188 42.925781 0.0234375 38.25 0.328125 C 33.570312 0.640625 28.9375 0.00390625 24.34375 -1.578125 C 19.757812 -3.171875 15.703125 -5.753906 12.171875 -9.328125 C 8.640625 -12.898438 6.082031 -17.597656 4.5 -23.421875 Z M 12.3125 -32.953125 C 12.570312 -30.484375 12.96875 -28.101562 13.5 -25.8125 C 15.257812 -19.457031 17.816406 -14.46875 21.171875 -10.84375 C 24.523438 -7.226562 28.226562 -4.78125 32.28125 -3.5 C 36.34375 -2.226562 40.378906 -1.941406 44.390625 -2.640625 C 48.410156 -3.347656 51.960938 -4.847656 55.046875 -7.140625 C 58.140625 -9.441406 60.347656 -12.378906 61.671875 -15.953125 C 62.992188 -19.523438 62.992188 -23.515625 61.671875 -27.921875 C 60.703125 -31.191406 58.984375 -33.925781 56.515625 -36.125 C 54.046875 -38.332031 51 -39.585938 47.375 -39.890625 C 43.757812 -40.203125 39.742188 -39.082031 35.328125 -36.53125 C 32.160156 -34.675781 29.050781 -33.375 26 -32.625 C 22.957031 -31.875 20.160156 -31.585938 17.609375 -31.765625 C 16.722656 -31.847656 15.816406 -31.976562 14.890625 -32.15625 C 13.960938 -32.332031 13.101562 -32.597656 12.3125 -32.953125 Z M 56.109375 -43.40625 C 54.429688 -47.195312 52.179688 -50.722656 49.359375 -53.984375 C 46.535156 -57.253906 43.289062 -59.707031 39.625 -61.34375 C 35.96875 -62.976562 31.976562 -63.21875 27.65625 -62.0625 C 23.6875 -61.007812 20.53125 -59.003906 18.1875 -56.046875 C 15.851562 -53.085938 14.242188 -49.644531 13.359375 -45.71875 C 12.484375 -41.789062 12.132812 -37.890625 12.3125 -34.015625 C 13.8125 -33.304688 15.578125 -32.863281 17.609375 -32.6875 C 20.078125 -32.601562 22.785156 -32.910156 25.734375 -33.609375 C 28.691406 -34.316406 31.71875 -35.554688 34.8125 -37.328125 C 38.425781 -39.441406 42.128906 -40.9375 45.921875 -41.8125 C 49.710938 -42.695312 53.109375 -43.226562 56.109375 -43.40625 Z M 56.109375 -43.40625 "/></g></g><g style="fill:#000000;fill-opacity:1;"><g transform="translate(1014.946127, 207.592385)"><path style="stroke:none" d="M 3.3125 -62.59375 L 3.3125 -63.796875 L 15.484375 -63.796875 L 15.484375 -29.515625 C 16.015625 -33.566406 16.742188 -37.222656 17.671875 -40.484375 C 18.597656 -43.753906 19.632812 -46.671875 20.78125 -49.234375 C 21.925781 -51.703125 23.359375 -54.082031 25.078125 -56.375 C 26.796875 -58.664062 28.800781 -60.5625 31.09375 -62.0625 C 33.394531 -63.5625 36 -64.3125 38.90625 -64.3125 C 43.757812 -64.3125 47.421875 -63.054688 49.890625 -60.546875 C 52.359375 -58.035156 54.054688 -54.835938 54.984375 -50.953125 C 55.910156 -47.066406 56.375 -43.140625 56.375 -39.171875 L 56.375 -11.375 C 56.375 -7.050781 56.789062 -4.269531 57.625 -3.03125 C 58.46875 -1.800781 59.066406 -1.1875 59.421875 -1.1875 L 59.421875 0 L 44.078125 0 L 44.078125 -1.1875 C 44.515625 -1.1875 45.128906 -1.800781 45.921875 -3.03125 C 46.710938 -4.269531 47.109375 -7.050781 47.109375 -11.375 L 47.109375 -39.171875 C 47.109375 -40.765625 47.019531 -42.660156 46.84375 -44.859375 C 46.664062 -47.066406 46.289062 -49.296875 45.71875 -51.546875 C 45.144531 -53.796875 44.304688 -55.78125 43.203125 -57.5 C 42.109375 -59.21875 40.632812 -60.390625 38.78125 -61.015625 C 36.3125 -61.890625 33.953125 -61.664062 31.703125 -60.34375 C 29.453125 -59.019531 27.488281 -57.253906 25.8125 -55.046875 C 24.132812 -52.847656 22.8125 -50.734375 21.84375 -48.703125 C 19.894531 -44.554688 18.347656 -39.394531 17.203125 -33.21875 C 16.054688 -27.039062 15.484375 -19.757812 15.484375 -11.375 C 15.484375 -7.050781 15.898438 -4.269531 16.734375 -3.03125 C 17.578125 -1.800781 18.175781 -1.1875 18.53125 -1.1875 L 18.53125 0 L 3.3125 0 L 3.3125 -1.1875 C 3.75 -1.1875 4.363281 -1.800781 5.15625 -3.03125 C 5.957031 -4.269531 6.359375 -7.050781 6.359375 -11.375 L 6.359375 -52.40625 C 6.359375 -56.726562 5.957031 -59.503906 5.15625 -60.734375 C 4.363281 -61.972656 3.75 -62.59375 3.3125 -62.59375 Z M 3.3125 -62.59375 "/></g></g><g style="fill:#000000;fill-opacity:1;"><g transform="translate(159.06784, 246.562926)"><path style="stroke:none" d="M 175.765625 -63.78125 C 175.765625 -71.957031 174.234375 -77.898438 171.171875 -81.609375 C 168.109375 -85.328125 164.347656 -87.742188 159.890625 -88.859375 C 155.429688 -89.972656 150.785156 -90.53125 145.953125 -90.53125 L 128.125 -90.53125 L 128.125 -93.03125 L 201.953125 -93.03125 L 201.953125 -90.53125 C 200.085938 -90.53125 198.832031 -89.132812 198.1875 -86.34375 C 197.539062 -83.5625 197.125 -80.265625 196.9375 -76.453125 C 196.75 -72.648438 196.285156 -69.265625 195.546875 -66.296875 C 192.203125 -51.253906 186.023438 -38.71875 177.015625 -28.6875 C 168.003906 -18.664062 157.320312 -11.144531 144.96875 -6.125 C 132.625 -1.113281 119.628906 1.25 105.984375 0.96875 C 92.335938 0.695312 79.15625 -2.128906 66.4375 -7.515625 C 53.71875 -12.898438 42.53125 -20.976562 32.875 -31.75 C 23.21875 -42.519531 16.253906 -55.984375 11.984375 -72.140625 C 8.453125 -85.328125 7.613281 -98.375 9.46875 -111.28125 C 11.320312 -124.1875 15.453125 -136.160156 21.859375 -147.203125 C 28.265625 -158.253906 36.570312 -167.816406 46.78125 -175.890625 C 57 -183.972656 68.703125 -189.78125 81.890625 -193.3125 C 94.515625 -196.84375 107.046875 -197.769531 119.484375 -196.09375 C 131.929688 -194.425781 143.585938 -190.664062 154.453125 -184.8125 C 165.316406 -178.96875 174.742188 -171.304688 182.734375 -161.828125 L 176.046875 -137.328125 L 173.53125 -137.328125 C 169.257812 -146.054688 163.96875 -154.179688 157.65625 -161.703125 C 151.34375 -169.222656 144.285156 -175.675781 136.484375 -181.0625 C 128.679688 -186.445312 120.226562 -190.113281 111.125 -192.0625 C 102.03125 -194.007812 92.472656 -193.679688 82.453125 -191.078125 C 70.566406 -187.921875 60.675781 -182.300781 52.78125 -174.21875 C 44.894531 -166.144531 38.90625 -156.675781 34.8125 -145.8125 C 30.726562 -134.957031 28.453125 -123.585938 27.984375 -111.703125 C 27.523438 -99.816406 28.6875 -88.394531 31.46875 -77.4375 C 35.1875 -63.882812 40.664062 -52.234375 47.90625 -42.484375 C 55.144531 -32.734375 63.5 -24.929688 72.96875 -19.078125 C 82.445312 -13.234375 92.382812 -9.332031 102.78125 -7.375 C 113.175781 -5.425781 123.390625 -5.382812 133.421875 -7.25 C 142.890625 -9.289062 150.457031 -12.351562 156.125 -16.4375 C 161.789062 -20.519531 166.015625 -25.253906 168.796875 -30.640625 C 171.585938 -36.023438 173.445312 -41.59375 174.375 -47.34375 C 175.300781 -53.101562 175.765625 -58.582031 175.765625 -63.78125 Z M 175.765625 -63.78125 "/></g></g><g style="fill:#000000;fill-opacity:1;"><g transform="translate(633.584565, 242.694324)"><path style="stroke:none" d="M 11.984375 -72.703125 C 8.453125 -85.890625 7.613281 -98.9375 9.46875 -111.84375 C 11.320312 -124.75 15.453125 -136.726562 21.859375 -147.78125 C 28.273438 -158.832031 36.585938 -168.394531 46.796875 -176.46875 C 57.015625 -184.550781 68.71875 -190.359375 81.90625 -193.890625 C 94.71875 -197.421875 107.296875 -198.347656 119.640625 -196.671875 C 131.992188 -195.003906 143.601562 -191.242188 154.46875 -185.390625 C 165.332031 -179.546875 174.757812 -171.882812 182.75 -162.40625 L 176.34375 -137.890625 L 173.828125 -137.890625 C 169.554688 -146.617188 164.265625 -154.742188 157.953125 -162.265625 C 151.640625 -169.785156 144.535156 -176.238281 136.640625 -181.625 C 128.742188 -187.019531 120.242188 -190.691406 111.140625 -192.640625 C 102.046875 -194.585938 92.484375 -194.257812 82.453125 -191.65625 C 70.566406 -188.5 60.675781 -182.878906 52.78125 -174.796875 C 44.894531 -166.722656 38.90625 -157.253906 34.8125 -146.390625 C 30.726562 -135.523438 28.453125 -124.148438 27.984375 -112.265625 C 27.523438 -100.378906 28.785156 -88.957031 31.765625 -78 C 36.035156 -62.394531 42.488281 -49.394531 51.125 -39 C 59.757812 -28.601562 69.691406 -20.710938 80.921875 -15.328125 C 92.160156 -9.941406 103.769531 -7.015625 115.75 -6.546875 C 127.726562 -6.078125 139.101562 -8.070312 149.875 -12.53125 C 160.644531 -16.988281 169.882812 -23.8125 177.59375 -33 C 185.300781 -42.195312 190.546875 -53.671875 193.328125 -67.421875 L 195.5625 -66.859375 C 192.957031 -53.859375 188.171875 -42.757812 181.203125 -33.5625 C 174.242188 -24.375 165.84375 -17.039062 156 -11.5625 C 146.15625 -6.082031 135.519531 -2.457031 124.09375 -0.6875 C 112.675781 1.070312 101.164062 0.882812 89.5625 -1.25 C 77.957031 -3.382812 66.953125 -7.421875 56.546875 -13.359375 C 46.148438 -19.304688 37.050781 -27.203125 29.25 -37.046875 C 21.445312 -46.890625 15.691406 -58.773438 11.984375 -72.703125 Z M 11.984375 -72.703125 "/></g></g><g style="fill:#000000;fill-opacity:1;"><g transform="translate(868.609135, 271.187899)"><path style="stroke:none" d="M 8.15625 -3.75 L 21.828125 -3.75 L 21.828125 0 L 3.75 0 L 3.75 -34.84375 L 8.15625 -34.84375 Z M 8.15625 -3.75 "/></g></g><g style="fill:#000000;fill-opacity:1;"><g transform="translate(912.088178, 271.187899)"><path style="stroke:none" d="M 8.328125 0 L 3.953125 0 L 3.953125 -34.84375 L 8.328125 -34.84375 Z M 8.328125 0 "/></g></g><g style="fill:#000000;fill-opacity:1;"><g transform="translate(944.53823, 271.187899)"><path style="stroke:none" d="M 3.75 0 L 3.75 -34.84375 L 13.6875 -34.84375 C 16.863281 -34.84375 19.253906 -34.066406 20.859375 -32.515625 C 22.460938 -30.972656 23.265625 -28.65625 23.265625 -25.5625 C 23.265625 -23.9375 22.859375 -22.5 22.046875 -21.25 C 21.234375 -20.007812 20.128906 -19.046875 18.734375 -18.359375 C 20.335938 -17.878906 21.601562 -16.894531 22.53125 -15.40625 C 23.46875 -13.925781 23.9375 -12.140625 23.9375 -10.046875 C 23.9375 -6.921875 23.078125 -4.460938 21.359375 -2.671875 C 19.640625 -0.890625 17.195312 0 14.03125 0 Z M 8.140625 -16.296875 L 8.140625 -3.75 L 14.125 -3.75 C 15.78125 -3.75 17.09375 -4.296875 18.0625 -5.390625 C 19.039062 -6.484375 19.53125 -8.019531 19.53125 -10 C 19.53125 -14.195312 17.757812 -16.296875 14.21875 -16.296875 Z M 8.140625 -19.984375 L 13.765625 -19.984375 C 15.273438 -19.984375 16.492188 -20.492188 17.421875 -21.515625 C 18.359375 -22.535156 18.828125 -23.890625 18.828125 -25.578125 C 18.828125 -27.492188 18.40625 -28.882812 17.5625 -29.75 C 16.71875 -30.625 15.425781 -31.0625 13.6875 -31.0625 L 8.140625 -31.0625 Z M 8.140625 -19.984375 "/></g></g><g style="fill:#000000;fill-opacity:1;"><g transform="translate(991.462337, 271.187899)"><path style="stroke:none" d="M 14.28125 -14.09375 L 8.15625 -14.09375 L 8.15625 0 L 3.75 0 L 3.75 -34.84375 L 13.515625 -34.84375 C 16.929688 -34.84375 19.515625 -33.953125 21.265625 -32.171875 C 23.023438 -30.398438 23.90625 -27.796875 23.90625 -24.359375 C 23.90625 -22.210938 23.429688 -20.335938 22.484375 -18.734375 C 21.535156 -17.128906 20.191406 -15.921875 18.453125 -15.109375 L 25.203125 -0.28125 L 25.203125 0 L 20.484375 0 Z M 8.15625 -17.859375 L 13.46875 -17.859375 C 15.3125 -17.859375 16.773438 -18.445312 17.859375 -19.625 C 18.953125 -20.800781 19.5 -22.378906 19.5 -24.359375 C 19.5 -28.828125 17.472656 -31.0625 13.421875 -31.0625 L 8.15625 -31.0625 Z M 8.15625 -17.859375 "/></g></g><g style="fill:#000000;fill-opacity:1;"><g transform="translate(1037.668723, 271.187899)"><path style="stroke:none" d="M 20.015625 -9.09375 L 8.234375 -9.09375 L 5.53125 0 L 1.03125 0 L 12.25 -34.84375 L 16.015625 -34.84375 L 27.265625 0 L 22.765625 0 Z M 9.375 -12.875 L 18.890625 -12.875 L 14.125 -28.71875 Z M 9.375 -12.875 "/></g></g><g style="fill:#000000;fill-opacity:1;"><g transform="translate(1086.100046, 271.187899)"><path style="stroke:none" d="M 14.28125 -14.09375 L 8.15625 -14.09375 L 8.15625 0 L 3.75 0 L 3.75 -34.84375 L 13.515625 -34.84375 C 16.929688 -34.84375 19.515625 -33.953125 21.265625 -32.171875 C 23.023438 -30.398438 23.90625 -27.796875 23.90625 -24.359375 C 23.90625 -22.210938 23.429688 -20.335938 22.484375 -18.734375 C 21.535156 -17.128906 20.191406 -15.921875 18.453125 -15.109375 L 25.203125 -0.28125 L 25.203125 0 L 20.484375 0 Z M 8.15625 -17.859375 L 13.46875 -17.859375 C 15.3125 -17.859375 16.773438 -18.445312 17.859375 -19.625 C 18.953125 -20.800781 19.5 -22.378906 19.5 -24.359375 C 19.5 -28.828125 17.472656 -31.0625 13.421875 -31.0625 L 8.15625 -31.0625 Z M 8.15625 -17.859375 "/></g></g><g style="fill:#000000;fill-opacity:1;"><g transform="translate(1131.157772, 271.187899)"><path style="stroke:none" d="M 12.828125 -17.359375 L 19.953125 -34.84375 L 24.921875 -34.84375 L 15 -13 L 15 0 L 10.625 0 L 10.625 -13 L 0.71875 -34.84375 L 5.703125 -34.84375 Z M 12.828125 -17.359375 "/></g></g><g style="fill:#000000;fill-opacity:1;"><g transform="translate(56.339241, 85.742565)"><path style="stroke:none" d="M 24.125 -31.078125 L 14.96875 -31.078125 L 14.96875 0 L 10.578125 0 L 10.578125 -31.078125 L 1.4375 -31.078125 L 1.4375 -34.859375 L 24.125 -34.859375 Z M 24.125 -31.078125 "/></g></g><g style="fill:#000000;fill-opacity:1;"><g transform="translate(98.034643, 85.742565)"><path style="stroke:none" d="M 26.578125 0 L 22.171875 0 L 22.171875 -16.109375 L 8.140625 -16.109375 L 8.140625 0 L 3.765625 0 L 3.765625 -34.859375 L 8.140625 -34.859375 L 8.140625 -19.875 L 22.171875 -19.875 L 22.171875 -34.859375 L 26.578125 -34.859375 Z M 26.578125 0 "/></g></g><g style="fill:#000000;fill-opacity:1;"><g transform="translate(144.612849, 85.742565)"><path style="stroke:none" d="M 20.46875 -16.109375 L 8.140625 -16.109375 L 8.140625 -3.765625 L 22.5 -3.765625 L 22.5 0 L 3.765625 0 L 3.765625 -34.859375 L 22.265625 -34.859375 L 22.265625 -31.078125 L 8.140625 -31.078125 L 8.140625 -19.875 L 20.46875 -19.875 Z M 20.46875 -16.109375 "/></g></g></g></svg>